<?xml version="1.0" encoding="UTF-8" standalone="no"?>
<!-- Created with Inkscape (http://www.inkscape.org/) -->

<svg
   width="100mm"
   height="100mm"
   viewBox="0 0 100 100"
   version="1.1"
   id="svg5"
   inkscape:version="1.2.1 (9c6d41e4, 2022-07-14)"
   sodipodi:docname="favi.svg"
   xml:space="preserve"
   inkscape:export-filename="icon16.png"
   inkscape:export-xdpi="3.9959757"
   inkscape:export-ydpi="3.9959757"
   xmlns:inkscape="http://www.inkscape.org/namespaces/inkscape"
   xmlns:sodipodi="http://sodipodi.sourceforge.net/DTD/sodipodi-0.dtd"
   xmlns="http://www.w3.org/2000/svg"
   xmlns:svg="http://www.w3.org/2000/svg"><sodipodi:namedview
     id="namedview7"
     pagecolor="#ffffff"
     bordercolor="#000000"
     borderopacity="0.25"
     inkscape:showpageshadow="2"
     inkscape:pageopacity="0.0"
     inkscape:pagecheckerboard="0"
     inkscape:deskcolor="#d1d1d1"
     inkscape:document-units="mm"
     showgrid="false"
     inkscape:zoom="1.2543678"
     inkscape:cx="143.09997"
     inkscape:cy="207.27572"
     inkscape:window-width="1460"
     inkscape:window-height="796"
     inkscape:window-x="216"
     inkscape:window-y="103"
     inkscape:window-maximized="0"
     inkscape:current-layer="layer1"
     showguides="true"><sodipodi:guide
       position="129.37401,3.5396531"
       orientation="1,0"
       id="guide51614"
       inkscape:locked="false" /></sodipodi:namedview><defs
     id="defs2" /><g
     inkscape:label="Layer 1"
     inkscape:groupmode="layer"
     id="layer1"><g
       id="g62873"><rect
         style="fill:#515568;fill-opacity:1;stroke:none;stroke-width:3.00496;stroke-linecap:round;stroke-linejoin:round;stroke-dasharray:none;stroke-opacity:1"
         id="rect57518"
         width="101.70232"
         height="101.70232"
         x="-0.79739094"
         y="-0.9336552"
         ry="0"
         rx="0" /><ellipse
         style="fill:#000000;fill-opacity:1;stroke:none;stroke-width:3.57535;stroke-linecap:round;stroke-linejoin:round;stroke-dasharray:none;stroke-opacity:1"
         id="path38695"
         cx="49.309765"
         cy="42.606529"
         rx="35.237137"
         ry="35.207489" /><path
         style="fill:#000000;fill-opacity:1;stroke:none;stroke-width:3.5309;stroke-linecap:round;stroke-linejoin:round;stroke-dasharray:none;stroke-opacity:1"
         d="M 32.66189,70.01331 C 32.859484,78.628129 32.096317,86.662129 31.333671,94.696448 42.199351,89.232854 50.061239,82.697264 59.152164,74.920199 46.930168,74.728325 42.746614,75.500233 32.66189,70.01331 Z"
         id="path38703"
         sodipodi:nodetypes="cccc" /><ellipse
         style="fill:#ffffff;fill-opacity:1;stroke:none;stroke-width:3.03916;stroke-linecap:round;stroke-linejoin:round;stroke-dasharray:none;stroke-opacity:1"
         id="ellipse49282"
         cx="49.230701"
         cy="42.932964"
         rx="29.788095"
         ry="30.092916" /><path
         id="ellipse38697"
         style="fill:#daedf6;fill-opacity:1;stroke:none;stroke-width:3.03916;stroke-linecap:round;stroke-linejoin:round;stroke-dasharray:none;stroke-opacity:1"
         d="M 78.902411,39.231254 A 29.788094,24.06358 0 0 1 49.30993,60.693751 29.788094,24.06358 0 0 1 19.726438,39.302239 29.788094,30.092918 0 0 0 19.521575,42.659179 29.788094,30.092918 0 0 0 36.47251,69.794151 c 0.361179,4.094398 0.256087,13.597871 0.02608,17.244756 4.132155,-1.615299 14.53372,-11.357636 18.854028,-14.913048 a 29.788094,30.092918 0 0 0 23.745684,-29.46668 29.788094,30.092918 0 0 0 -0.195873,-3.427925 z" /><ellipse
         style="fill:#000000;fill-opacity:1;stroke:none;stroke-width:3.63857;stroke-linecap:round;stroke-linejoin:round;stroke-dasharray:none;stroke-opacity:1"
         id="path38922"
         cx="38.522045"
         cy="34.455761"
         rx="8.039115"
         ry="8.1826706" /><path
         id="ellipse38924"
         style="fill:#ffffff;fill-opacity:1;stroke:none;stroke-width:1.24636;stroke-linecap:round;stroke-linejoin:round;stroke-dasharray:none;stroke-opacity:1"
         d="m 39.739119,27.753508 c -2.410348,2.5e-5 -3.91806,2.041528 -3.917729,3.018407 7.65e-4,0.976561 1.686615,-0.01687 4.096179,-0.01687 2.409565,-1.7e-5 4.273866,1.350502 4.274648,0.373938 3.31e-4,-0.976879 -2.042769,-3.375388 -4.453098,-3.375409 z"
         sodipodi:nodetypes="scscs" /><path
         style="fill:#000000;fill-opacity:1;stroke:none;stroke-width:3.47756;stroke-linecap:round;stroke-linejoin:round;stroke-dasharray:none;stroke-opacity:1"
         d="m 40.818935,47.375755 19.95424,0.143554 c -1.883358,16.089614 -21.683734,9.390015 -19.95424,-0.143554 z"
         id="path38930"
         sodipodi:nodetypes="ccc" /><g
         id="g49335"
         transform="matrix(1.6580225,0,0,1.7387786,-124.3604,-84.551864)"><path
           style="opacity:1;fill:#000000;fill-opacity:1;stroke:none;stroke-width:2;stroke-linecap:round;stroke-linejoin:round;stroke-dasharray:none;stroke-opacity:1"
           d="m 77.112147,62.003452 0.66049,-2.06403 4.623427,2.476836 -0.247684,1.073295 z"
           id="path41009" /><path
           style="opacity:1;fill:#000000;fill-opacity:1;stroke:none;stroke-width:2;stroke-linecap:round;stroke-linejoin:round;stroke-dasharray:none;stroke-opacity:1"
           d="m 77.690077,64.810531 -0.330245,1.32098 4.458303,1.733785 0.412806,-1.073295 z"
           id="path41011" /><path
           style="opacity:1;fill:#000000;fill-opacity:1;stroke:none;stroke-width:2;stroke-linecap:round;stroke-linejoin:round;stroke-dasharray:none;stroke-opacity:1"
           d="m 82.396064,71.002619 -5.449038,-0.412805 -0.247684,2.146591 5.614162,-0.330245 z"
           id="path41013" /><path
           style="opacity:1;fill:#000000;fill-opacity:1;stroke:none;stroke-width:2;stroke-linecap:round;stroke-linejoin:round;stroke-dasharray:none;stroke-opacity:1"
           d="m 129.1257,62.416258 0.66049,1.320977 4.37574,-1.816346 -0.99074,-1.981467 z"
           id="path41015" /><path
           style="opacity:1;fill:#000000;fill-opacity:1;stroke:none;stroke-width:2;stroke-linecap:round;stroke-linejoin:round;stroke-dasharray:none;stroke-opacity:1"
           d="m 128.38264,66.214071 0.49537,1.23842 4.62343,-0.908175 -0.82561,-2.394275 z"
           id="path41017" /><path
           style="opacity:1;fill:#000000;fill-opacity:1;stroke:none;stroke-width:2;stroke-linecap:round;stroke-linejoin:round;stroke-dasharray:none;stroke-opacity:1"
           d="m 128.54777,71.250304 v 1.073295 l 5.36647,0.495366 v -2.476833 z"
           id="path41019" /></g><g
         id="g49430"
         transform="matrix(1.7387786,0,0,1.7387786,-253.85436,-58.155969)"><ellipse
           style="opacity:1;fill:#000000;fill-opacity:1;stroke:none;stroke-width:2.0926;stroke-linecap:round;stroke-linejoin:round;stroke-dasharray:none;stroke-opacity:1"
           id="ellipse49424"
           cx="182.96715"
           cy="53.26252"
           rx="4.6234264"
           ry="4.7059875" /><path
           id="path49426"
           style="fill:#ffffff;fill-opacity:1;stroke:none;stroke-width:0.7168;stroke-linecap:round;stroke-linejoin:round;stroke-dasharray:none;stroke-opacity:1"
           d="m 183.66708,49.407945 c -1.38623,1.4e-5 -2.25334,1.174116 -2.25315,1.735935 4.4e-4,0.561636 0.97,-0.0097 2.35578,-0.0097 1.38578,-1e-5 2.45797,0.776696 2.45842,0.215058 1.9e-4,-0.561819 -1.17483,-1.941241 -2.56105,-1.941253 z"
           sodipodi:nodetypes="scscs" /></g></g></g></svg>
