<?xml version="1.0" encoding="UTF-8" standalone="no"?>
<!-- Created with Inkscape (http://www.inkscape.org/) -->

<svg
   width="100mm"
   height="100mm"
   viewBox="0 0 100 100"
   version="1.1"
   id="svg5"
   inkscape:version="1.2.1 (9c6d41e4, 2022-07-14)"
   sodipodi:docname="parley.svg"
   xml:space="preserve"
   xmlns:inkscape="http://www.inkscape.org/namespaces/inkscape"
   xmlns:sodipodi="http://sodipodi.sourceforge.net/DTD/sodipodi-0.dtd"
   xmlns="http://www.w3.org/2000/svg"
   xmlns:svg="http://www.w3.org/2000/svg"><sodipodi:namedview
     id="namedview7"
     pagecolor="#ffffff"
     bordercolor="#000000"
     borderopacity="0.25"
     inkscape:showpageshadow="2"
     inkscape:pageopacity="0.0"
     inkscape:pagecheckerboard="0"
     inkscape:deskcolor="#d1d1d1"
     inkscape:document-units="mm"
     showgrid="false"
     inkscape:zoom="0.63807253"
     inkscape:cx="561.84835"
     inkscape:cy="369.86391"
     inkscape:window-width="1460"
     inkscape:window-height="796"
     inkscape:window-x="0"
     inkscape:window-y="38"
     inkscape:window-maximized="0"
     inkscape:current-layer="layer1"
     showguides="true"><sodipodi:guide
       position="129.37401,3.5396531"
       orientation="1,0"
       id="guide51614"
       inkscape:locked="false" /></sodipodi:namedview><defs
     id="defs2" /><g
     inkscape:label="Layer 1"
     inkscape:groupmode="layer"
     id="layer1"><g
       id="g60099"
       transform="matrix(0.76408412,0,0,0.76408412,-106.16664,-10.873677)"><rect
         style="opacity:1;fill:#515568;fill-opacity:1;stroke:none;stroke-width:3.84304;stroke-linecap:round;stroke-linejoin:round;stroke-dasharray:none;stroke-opacity:1"
         id="rect57518"
         width="130.06696"
         height="130.06696"
         x="139.28296"
         y="14.941456"
         ry="10.7447"
         rx="10.7447" /><path
         id="rect4693"
         style="opacity:1;fill:#e1f5fa;fill-opacity:1;stroke:none;stroke-width:2.11384;stroke-linecap:round;stroke-linejoin:round;stroke-dasharray:none;stroke-opacity:1"
         d="m 177.20168,28.479244 c -5.75857,0 -10.3942,4.890077 -10.3942,10.964189 v 35.59731 c 0,6.074112 4.63563,10.964189 10.3942,10.964189 h 17.32812 c -0.28303,3.241202 -0.61358,6.482403 -1.22916,9.723605 5.575,-2.491477 12.73644,-6.279299 15.5072,-9.581082 l 23.64163,-0.142523 c 5.75847,-0.03471 10.39471,-4.890077 10.39471,-10.964189 v -35.59731 c 0,-6.074112 -4.63614,-10.964189 -10.39471,-10.964189 z"
         sodipodi:nodetypes="sssscccsssss" /><rect
         style="opacity:1;fill:#000000;fill-opacity:1;stroke:none;stroke-width:2.0136;stroke-linecap:round;stroke-linejoin:round;stroke-dasharray:none;stroke-opacity:1"
         id="rect27923"
         width="72.619431"
         height="54.655769"
         x="168.51596"
         y="29.914188"
         ry="13.231219"
         rx="13.044864" /><path
         style="opacity:1;fill:#fdffff;fill-opacity:1;stroke:none;stroke-width:1.86642;stroke-linecap:round;stroke-linejoin:round;stroke-dasharray:none;stroke-opacity:1"
         d="m 170.79432,45.138692 v 28.895394 c 0,4.575305 3.74684,8.258927 8.40103,8.258927 h 51.26096 c 4.65419,0 8.40104,-3.683622 8.40104,-8.258927 V 45.138692 Z"
         id="path30688" /><path
         style="opacity:1;fill:#fdffff;fill-opacity:1;stroke:none;stroke-width:1.86642;stroke-linecap:round;stroke-linejoin:round;stroke-dasharray:none;stroke-opacity:1"
         d="m 179.19535,32.191162 c -4.65419,0 -8.40103,3.683622 -8.40103,8.258927 v 2.268079 h 68.06303 v -2.268079 c 0,-4.575305 -3.74685,-8.258927 -8.40104,-8.258927 z"
         id="rect27933" /><rect
         style="opacity:1;fill:#000000;fill-opacity:1;stroke:none;stroke-width:1.50554;stroke-linecap:round;stroke-linejoin:round;stroke-dasharray:none;stroke-opacity:1"
         id="rect30618"
         width="70.198784"
         height="2.4206495"
         x="170.06227"
         y="42.718185"
         rx="0"
         ry="0" /><path
         style="opacity:1;fill:#83fbea;fill-opacity:1;stroke:none;stroke-width:1.73227;stroke-linecap:round;stroke-linejoin:round;stroke-dasharray:none;stroke-opacity:1"
         d="m 180.35099,33.187899 c -4.42852,0 -9.27189,3.192452 -9.27189,7.334549 l -0.0751,2.228586 67.79193,-0.03287 v -2.053329 c 0,-4.142097 -5.24096,-7.47694 -9.66948,-7.47694 z"
         id="path30690"
         sodipodi:nodetypes="ssccsss" /><path
         id="path35307"
         style="opacity:1;fill:#61c5d2;fill-opacity:1;stroke:none;stroke-width:1.73227;stroke-linecap:round;stroke-linejoin:round;stroke-dasharray:none;stroke-opacity:1"
         d="m 171.35656,38.833651 c -0.17797,0.540164 -0.27751,1.104541 -0.27751,1.688785 l -0.0749,2.228805 67.79173,-0.03307 v -2.053105 c 0,-0.632288 -0.12351,-1.245735 -0.34623,-1.831412 z" /><g
         id="g38510"
         transform="translate(80.323899,-9.0603226)"
         style="opacity:1"><ellipse
           style="opacity:1;fill:#ffffff;fill-opacity:1;stroke:none;stroke-width:2.02828;stroke-linecap:round;stroke-linejoin:round;stroke-dasharray:none;stroke-opacity:1"
           id="ellipse38506"
           cx="96.850639"
           cy="47.179058"
           rx="2.3368785"
           ry="2.3306084" /><ellipse
           style="opacity:1;fill:#000000;fill-opacity:1;stroke:none;stroke-width:2;stroke-linecap:round;stroke-linejoin:round;stroke-dasharray:none;stroke-opacity:1"
           id="path37745"
           cx="96.850639"
           cy="46.933788"
           rx="2.3368785"
           ry="2.2660639" /></g><g
         id="g38516"
         transform="translate(87.203067,-9.0603226)"
         style="opacity:1"><ellipse
           style="opacity:1;fill:#ffffff;fill-opacity:1;stroke:none;stroke-width:2.02828;stroke-linecap:round;stroke-linejoin:round;stroke-dasharray:none;stroke-opacity:1"
           id="ellipse38512"
           cx="96.850639"
           cy="47.179058"
           rx="2.3368785"
           ry="2.3306084" /><ellipse
           style="opacity:1;fill:#000000;fill-opacity:1;stroke:none;stroke-width:2;stroke-linecap:round;stroke-linejoin:round;stroke-dasharray:none;stroke-opacity:1"
           id="ellipse38514"
           cx="96.850639"
           cy="46.933788"
           rx="2.3368785"
           ry="2.2660639" /></g><g
         id="g38522"
         transform="translate(94.082235,-9.0603226)"
         style="opacity:1"><ellipse
           style="opacity:1;fill:#ffffff;fill-opacity:1;stroke:none;stroke-width:2.02828;stroke-linecap:round;stroke-linejoin:round;stroke-dasharray:none;stroke-opacity:1"
           id="ellipse38518"
           cx="96.850639"
           cy="47.179058"
           rx="2.3368785"
           ry="2.3306084" /><ellipse
           style="opacity:1;fill:#000000;fill-opacity:1;stroke:none;stroke-width:2;stroke-linecap:round;stroke-linejoin:round;stroke-dasharray:none;stroke-opacity:1"
           id="ellipse38520"
           cx="96.850639"
           cy="46.933788"
           rx="2.3368785"
           ry="2.2660639" /></g><g
         id="g38550"
         transform="translate(136.41557,-9.0603226)"
         style="opacity:1"><ellipse
           style="opacity:1;fill:#ffffff;fill-opacity:1;stroke:none;stroke-width:2.02828;stroke-linecap:round;stroke-linejoin:round;stroke-dasharray:none;stroke-opacity:1"
           id="ellipse38546"
           cx="96.850639"
           cy="47.179058"
           rx="2.3368785"
           ry="2.3306084" /><ellipse
           style="opacity:1;fill:#000000;fill-opacity:1;stroke:none;stroke-width:2;stroke-linecap:round;stroke-linejoin:round;stroke-dasharray:none;stroke-opacity:1"
           id="ellipse38548"
           cx="96.850639"
           cy="46.933788"
           rx="2.3368785"
           ry="2.2660639" /></g><g
         id="g38556"
         transform="translate(129.5364,-9.0603226)"
         style="opacity:1"><ellipse
           style="opacity:1;fill:#ffffff;fill-opacity:1;stroke:none;stroke-width:2.02828;stroke-linecap:round;stroke-linejoin:round;stroke-dasharray:none;stroke-opacity:1"
           id="ellipse38552"
           cx="96.850639"
           cy="47.179058"
           rx="2.3368785"
           ry="2.3306084" /><ellipse
           style="opacity:1;fill:#000000;fill-opacity:1;stroke:none;stroke-width:2;stroke-linecap:round;stroke-linejoin:round;stroke-dasharray:none;stroke-opacity:1"
           id="ellipse38554"
           cx="96.850639"
           cy="46.933788"
           rx="2.3368785"
           ry="2.2660639" /></g><path
         id="path49477"
         style="opacity:0.0844445;fill:#26759b;fill-opacity:1;stroke:none;stroke-width:1.86642;stroke-linecap:round;stroke-linejoin:round;stroke-dasharray:none;stroke-opacity:1"
         d="m 170.79432,61.262773 v 12.771313 c 0,4.5753 3.74685,8.258927 8.40103,8.258927 h 51.26096 c 4.65418,0 8.40104,-3.683627 8.40104,-8.258927 v -2.514058 c -14.18015,9.848926 -27.75207,3.6765 -45.59722,7.25382 -7.51904,0.327745 -12.47586,-1.267166 -15.91376,-4.459159 -3.24679,-3.014556 -5.13512,-7.462851 -6.55205,-13.051916 z" /><g
         id="g49569"
         transform="translate(31.373373,4.9845546)"><ellipse
           style="fill:#000000;fill-opacity:1;stroke:none;stroke-width:2.05624;stroke-linecap:round;stroke-linejoin:round;stroke-dasharray:none;stroke-opacity:1"
           id="path38695"
           cx="174.35464"
           cy="57.950161"
           rx="20.265453"
           ry="20.248402" /><path
           style="fill:#000000;fill-opacity:1;stroke:none;stroke-width:2.03068;stroke-linecap:round;stroke-linejoin:round;stroke-dasharray:none;stroke-opacity:1"
           d="m 164.78018,73.712248 c 0.11364,4.954523 -0.32527,9.575008 -0.76388,14.195676 6.24903,-3.142202 10.77053,-6.900927 15.99887,-11.373644 -7.02907,-0.11035 -9.4351,0.333587 -15.23499,-2.822032 z"
           id="path38703"
           sodipodi:nodetypes="cccc" /><ellipse
           style="fill:#ffffff;fill-opacity:1;stroke:none;stroke-width:1.74787;stroke-linecap:round;stroke-linejoin:round;stroke-dasharray:none;stroke-opacity:1"
           id="ellipse49282"
           cx="174.30917"
           cy="58.137897"
           rx="17.13162"
           ry="17.306929" /><path
           id="ellipse38697"
           style="fill:#daedf6;fill-opacity:1;stroke:none;stroke-width:1.74787;stroke-linecap:round;stroke-linejoin:round;stroke-dasharray:none;stroke-opacity:1"
           d="m 191.37386,56.008984 a 17.13162,13.839358 0 0 1 -17.01912,12.343433 17.13162,13.839358 0 0 1 -17.01395,-12.302608 17.13162,17.306929 0 0 0 -0.11782,1.930631 17.13162,17.306929 0 0 0 9.74876,15.605766 c 0.20772,2.354755 0.14728,7.820358 0.015,9.917741 2.37647,-0.928985 8.35858,-6.531962 10.84326,-8.576738 a 17.13162,17.306929 0 0 0 13.65653,-16.946769 17.13162,17.306929 0 0 0 -0.11265,-1.971456 z" /><g
           id="g49549"><ellipse
             style="opacity:1;fill:#000000;fill-opacity:1;stroke:none;stroke-width:2.0926;stroke-linecap:round;stroke-linejoin:round;stroke-dasharray:none;stroke-opacity:1"
             id="path38922"
             cx="168.15045"
             cy="53.26252"
             rx="4.6234264"
             ry="4.7059875" /><path
             id="ellipse38924"
             style="fill:#ffffff;fill-opacity:1;stroke:none;stroke-width:0.7168;stroke-linecap:round;stroke-linejoin:round;stroke-dasharray:none;stroke-opacity:1"
             d="m 168.85041,49.407945 c -1.38623,1.4e-5 -2.25334,1.174116 -2.25315,1.735935 4.4e-4,0.561636 0.97,-0.0097 2.35578,-0.0097 1.38578,-1e-5 2.45797,0.776696 2.45842,0.215058 1.9e-4,-0.561819 -1.17483,-1.941241 -2.56105,-1.941253 z"
             sodipodi:nodetypes="scscs" /><path
             style="fill:#000000;fill-opacity:1;stroke:none;stroke-width:2;stroke-linecap:round;stroke-linejoin:round;stroke-dasharray:none;stroke-opacity:1"
             d="m 169.47143,60.69302 11.47601,0.08256 c -1.08315,9.2534 -12.47067,5.400351 -11.47601,-0.08256 z"
             id="path38930"
             sodipodi:nodetypes="ccc" /><g
             id="g49335"
             transform="translate(69.820081,-15.180711)"><path
               style="opacity:1;fill:#000000;fill-opacity:1;stroke:none;stroke-width:2;stroke-linecap:round;stroke-linejoin:round;stroke-dasharray:none;stroke-opacity:1"
               d="m 77.112147,62.003452 0.66049,-2.06403 4.623427,2.476836 -0.247684,1.073295 z"
               id="path41009" /><path
               style="opacity:1;fill:#000000;fill-opacity:1;stroke:none;stroke-width:2;stroke-linecap:round;stroke-linejoin:round;stroke-dasharray:none;stroke-opacity:1"
               d="m 77.690077,64.810531 -0.330245,1.32098 4.458303,1.733785 0.412806,-1.073295 z"
               id="path41011" /><path
               style="opacity:1;fill:#000000;fill-opacity:1;stroke:none;stroke-width:2;stroke-linecap:round;stroke-linejoin:round;stroke-dasharray:none;stroke-opacity:1"
               d="m 82.396064,71.002619 -5.449038,-0.412805 -0.247684,2.146591 5.614162,-0.330245 z"
               id="path41013" /><path
               style="opacity:1;fill:#000000;fill-opacity:1;stroke:none;stroke-width:2;stroke-linecap:round;stroke-linejoin:round;stroke-dasharray:none;stroke-opacity:1"
               d="m 129.1257,62.416258 0.66049,1.320977 4.37574,-1.816346 -0.99074,-1.981467 z"
               id="path41015" /><path
               style="opacity:1;fill:#000000;fill-opacity:1;stroke:none;stroke-width:2;stroke-linecap:round;stroke-linejoin:round;stroke-dasharray:none;stroke-opacity:1"
               d="m 128.38264,66.214071 0.49537,1.23842 4.62343,-0.908175 -0.82561,-2.394275 z"
               id="path41017" /><path
               style="opacity:1;fill:#000000;fill-opacity:1;stroke:none;stroke-width:2;stroke-linecap:round;stroke-linejoin:round;stroke-dasharray:none;stroke-opacity:1"
               d="m 128.54777,71.250304 v 1.073295 l 5.36647,0.495366 v -2.476833 z"
               id="path41019" /></g><g
             id="g49430"><ellipse
               style="opacity:1;fill:#000000;fill-opacity:1;stroke:none;stroke-width:2.0926;stroke-linecap:round;stroke-linejoin:round;stroke-dasharray:none;stroke-opacity:1"
               id="ellipse49424"
               cx="182.96715"
               cy="53.26252"
               rx="4.6234264"
               ry="4.7059875" /><path
               id="path49426"
               style="fill:#ffffff;fill-opacity:1;stroke:none;stroke-width:0.7168;stroke-linecap:round;stroke-linejoin:round;stroke-dasharray:none;stroke-opacity:1"
               d="m 183.66708,49.407945 c -1.38623,1.4e-5 -2.25334,1.174116 -2.25315,1.735935 4.4e-4,0.561636 0.97,-0.0097 2.35578,-0.0097 1.38578,-1e-5 2.45797,0.776696 2.45842,0.215058 1.9e-4,-0.561819 -1.17483,-1.941241 -2.56105,-1.941253 z"
               sodipodi:nodetypes="scscs" /></g></g></g><g
         id="g57464"
         transform="matrix(2.3836511,0,0,2.3836511,-145.04765,-114.71857)"
         style="fill:#daedf6;fill-opacity:1"><g
           id="g51779"
           style="fill:#daedf6;fill-opacity:1;stroke:#75aad2;stroke-width:3.5;stroke-dasharray:none;stroke-opacity:1"><path
             style="font-weight:bold;font-size:15.4553px;font-family:'Bangla Sangam MN';-inkscape-font-specification:'Bangla Sangam MN Bold';fill:#daedf6;fill-opacity:1;stroke:#75aad2;stroke-width:3.5;stroke-linecap:round;stroke-linejoin:round;stroke-dasharray:none;stroke-opacity:1"
             d="m 152.9149,95.633994 q 0.0453,0.41506 0.19621,0.792386 0.15093,0.36978 0.38487,0.656549 0.23395,0.279221 0.54336,0.445245 0.3094,0.166024 0.66409,0.166024 0.65655,0 1.0867,-0.354687 0.4377,-0.362234 0.69428,-1.079154 h 1.64515 q -0.15093,0.686734 -0.49053,1.222538 -0.33205,0.535804 -0.79238,0.905584 -0.46034,0.36978 -1.01879,0.56599 -0.55089,0.19621 -1.13952,0.19621 -0.83012,0 -1.49422,-0.332048 -0.66409,-0.332047 -1.13198,-0.890491 -0.46788,-0.558443 -0.72446,-1.298003 -0.24904,-0.747107 -0.24904,-1.569679 0,-0.769747 0.24904,-1.471574 0.25658,-0.709374 0.72446,-1.245178 0.46789,-0.543351 1.13198,-0.860305 0.67164,-0.316954 1.50176,-0.316954 0.79994,0 1.44894,0.286768 0.649,0.286768 1.10934,0.799932 0.46034,0.505618 0.70183,1.199899 0.24903,0.686735 0.24903,1.486667 v 0.694281 z"
             id="path51767" /><path
             style="font-weight:bold;font-size:15.4553px;font-family:'Bangla Sangam MN';-inkscape-font-specification:'Bangla Sangam MN Bold';fill:#daedf6;fill-opacity:1;stroke:#75aad2;stroke-width:3.5;stroke-linecap:round;stroke-linejoin:round;stroke-dasharray:none;stroke-opacity:1"
             d="m 127.5587,88.575999 h 4.16569 c 0.54335,0 1.02381,0.09307 1.44138,0.279222 0.41758,0.186148 0.76724,0.430153 1.04897,0.732014 0.28677,0.29683 0.50311,0.631393 0.649,1.003689 0.15093,0.372295 0.2264,0.747106 0.2264,1.124433 0,0.397451 -0.0755,0.787355 -0.2264,1.169713 -0.14589,0.377327 -0.36223,0.714405 -0.649,1.011235 -0.28677,0.291799 -0.63894,0.528257 -1.05651,0.709374 -0.41757,0.176086 -0.89552,0.264129 -1.43384,0.264129 h -2.38471 v 5.640172 l -1.78098,2.06625 z"
             id="path51769"
             sodipodi:nodetypes="cssccscccscccc" /><path
             style="font-weight:bold;font-size:15.4553px;font-family:'Bangla Sangam MN';-inkscape-font-specification:'Bangla Sangam MN Bold';fill:#daedf6;fill-opacity:1;stroke:#75aad2;stroke-width:3.5;stroke-linecap:round;stroke-linejoin:round;stroke-dasharray:none;stroke-opacity:1"
             d="m 142.64796,98.795992 q -0.21885,0.135837 -0.38487,0.203756 -0.16603,0.07547 -0.30186,0.105652 -0.1283,0.03773 -0.2264,0.03773 -0.0906,0.0075 -0.15848,0.0075 -0.27167,0 -0.49807,-0.0981 -0.21885,-0.09811 -0.39242,-0.256582 -0.16602,-0.166024 -0.29431,-0.377327 -0.12075,-0.218849 -0.20376,-0.460338 -0.33959,0.354687 -0.64145,0.588629 -0.30187,0.226396 -0.59618,0.362234 -0.29432,0.135837 -0.58863,0.188663 -0.29432,0.05283 -0.61127,0.05283 -0.52071,0 -0.9735,-0.158477 -0.44525,-0.166024 -0.7773,-0.460339 -0.33204,-0.301861 -0.52071,-0.724467 -0.18866,-0.422606 -0.18866,-0.93577 0,-0.445246 0.19621,-0.769747 0.20376,-0.324501 0.52826,-0.56599 0.33204,-0.241489 0.7471,-0.415059 0.42261,-0.17357 0.85276,-0.309408 0.4377,-0.143384 0.85276,-0.271675 0.42261,-0.128291 0.74711,-0.271675 0.33205,-0.143384 0.52825,-0.316955 0.20376,-0.181116 0.20376,-0.430152 0,-0.241489 -0.12829,-0.399966 -0.12074,-0.166024 -0.31695,-0.264129 -0.18867,-0.105651 -0.43016,-0.150931 -0.23394,-0.04528 -0.46034,-0.04528 -0.22639,0 -0.45279,0.06792 -0.22639,0.06037 -0.41506,0.19621 -0.18111,0.135837 -0.3094,0.354687 -0.1283,0.211303 -0.16603,0.505618 h -1.80362 q 0.0453,-0.664095 0.3245,-1.15462 0.28677,-0.498071 0.72447,-0.822572 0.4377,-0.324501 0.98105,-0.482978 0.55089,-0.158477 1.11688,-0.158477 0.61882,0 1.17726,0.135837 0.56599,0.135838 0.99615,0.430153 0.43015,0.294314 0.68673,0.754653 0.25658,0.452792 0.25658,1.094247 v 3.727988 q 0,0.15093 0.0981,0.279221 0.0981,0.120745 0.27922,0.120745 0.0226,0 0.16602,-0.01509 0.14339,-0.02264 0.37733,-0.150931 z"
             id="path51771" /><path
             style="font-weight:bold;font-size:15.4553px;font-family:'Bangla Sangam MN';-inkscape-font-specification:'Bangla Sangam MN Bold';fill:#daedf6;fill-opacity:1;stroke:#75aad2;stroke-width:3.5;stroke-linecap:round;stroke-linejoin:round;stroke-dasharray:none;stroke-opacity:1"
             d="m 143.45544,91.317377 h 1.32064 l 0.29432,0.943317 q 0.34714,-0.54335 0.71692,-0.815026 0.37733,-0.279221 0.82257,-0.279221 0.13584,0 0.4377,0.06037 0.30186,0.05283 0.72447,0.286768 v 1.539493 q -0.27922,-0.105652 -0.48298,-0.166024 -0.19621,-0.06037 -0.33205,-0.08301 -0.12829,-0.03019 -0.20375,-0.03019 -0.0679,-0.0075 -0.0981,-0.0075 -0.33205,0 -0.59618,0.143384 -0.26412,0.135837 -0.44524,0.36978 -0.18112,0.226396 -0.27922,0.528257 -0.0981,0.301862 -0.0981,0.626363 v 4.565652 h -1.78098 z"
             id="path51773" /><path
             style="font-weight:bold;font-size:15.4553px;font-family:'Bangla Sangam MN';-inkscape-font-specification:'Bangla Sangam MN Bold';fill:#daedf6;fill-opacity:1;stroke:#75aad2;stroke-width:3.5;stroke-linecap:round;stroke-linejoin:round;stroke-dasharray:none;stroke-opacity:1"
             d="M 150.36509,88.479881 V 98.999748 H 148.5841 V 88.479881 Z"
             id="path51775" /><path
             style="font-weight:bold;font-size:15.4553px;font-family:'Bangla Sangam MN';-inkscape-font-specification:'Bangla Sangam MN Bold';fill:#daedf6;fill-opacity:1;stroke:#75aad2;stroke-width:3.5;stroke-linecap:round;stroke-linejoin:round;stroke-dasharray:none;stroke-opacity:1"
             d="m 161.72079,96.381101 1.72816,-5.063724 h 1.82626 l -3.18464,9.086023 q -0.15847,0.44525 -0.39996,0.7622 -0.23395,0.3245 -0.50562,0.52826 -0.27168,0.2113 -0.55844,0.30941 -0.28677,0.10565 -0.53581,0.10565 -0.1132,0 -0.25658,-0.0226 -0.14338,-0.0151 -0.30186,-0.0604 -0.15848,-0.0377 -0.3245,-0.0981 -0.15848,-0.0604 -0.30186,-0.14338 v -1.37347 q 0.27922,0.15093 0.48297,0.20376 0.21131,0.0528 0.3396,0.0528 0.18866,0 0.33205,-0.1132 0.14338,-0.10565 0.26412,-0.33959 0.12075,-0.226396 0.23395,-0.581083 0.12074,-0.347141 0.27167,-0.830119 -0.0981,-0.264128 -0.20375,-0.550897 -0.10566,-0.286768 -0.24904,-0.671641 -0.13584,-0.384873 -0.33205,-0.913131 -0.18866,-0.528257 -0.46788,-1.275364 -0.27168,-0.747107 -0.64146,-1.743249 -0.36978,-1.003689 -0.8603,-2.331879 h 1.87908 z"
             id="path51777" /></g><g
           id="g51699"
           style="fill:#daedf6;fill-opacity:1;stroke:#000000;stroke-width:2.1;stroke-dasharray:none"><path
             style="font-weight:bold;font-size:15.4553px;font-family:'Bangla Sangam MN';-inkscape-font-specification:'Bangla Sangam MN Bold';fill:#daedf6;fill-opacity:1;stroke:#000000;stroke-width:2.1;stroke-linecap:round;stroke-linejoin:round;stroke-dasharray:none"
             d="m 152.9149,95.633994 q 0.0453,0.41506 0.19621,0.792386 0.15093,0.36978 0.38487,0.656549 0.23395,0.279221 0.54336,0.445245 0.3094,0.166024 0.66409,0.166024 0.65655,0 1.0867,-0.354687 0.4377,-0.362234 0.69428,-1.079154 h 1.64515 q -0.15093,0.686734 -0.49053,1.222538 -0.33205,0.535804 -0.79238,0.905584 -0.46034,0.36978 -1.01879,0.56599 -0.55089,0.19621 -1.13952,0.19621 -0.83012,0 -1.49422,-0.332048 -0.66409,-0.332047 -1.13198,-0.890491 -0.46788,-0.558443 -0.72446,-1.298003 -0.24904,-0.747107 -0.24904,-1.569679 0,-0.769747 0.24904,-1.471574 0.25658,-0.709374 0.72446,-1.245178 0.46789,-0.543351 1.13198,-0.860305 0.67164,-0.316954 1.50176,-0.316954 0.79994,0 1.44894,0.286768 0.649,0.286768 1.10934,0.799932 0.46034,0.505618 0.70183,1.199899 0.24903,0.686735 0.24903,1.486667 v 0.694281 z"
             id="path51687" /><path
             style="font-weight:bold;font-size:15.4553px;font-family:'Bangla Sangam MN';-inkscape-font-specification:'Bangla Sangam MN Bold';fill:#daedf6;fill-opacity:1;stroke:#000000;stroke-width:2.1;stroke-linecap:round;stroke-linejoin:round;stroke-dasharray:none"
             d="m 127.5587,88.575999 h 4.16569 c 0.54335,0 1.02381,0.09307 1.44138,0.279222 0.41758,0.186148 0.76724,0.430153 1.04897,0.732014 0.28677,0.29683 0.50311,0.631393 0.649,1.003689 0.15093,0.372295 0.2264,0.747106 0.2264,1.124433 0,0.397451 -0.0755,0.787355 -0.2264,1.169713 -0.14589,0.377327 -0.36223,0.714405 -0.649,1.011235 -0.28677,0.291799 -0.63894,0.528257 -1.05651,0.709374 -0.41757,0.176086 -0.89552,0.264129 -1.43384,0.264129 h -2.38471 v 5.640172 l -1.78098,2.06625 z"
             id="path51689"
             sodipodi:nodetypes="cssccscccscccc" /><path
             style="font-weight:bold;font-size:15.4553px;font-family:'Bangla Sangam MN';-inkscape-font-specification:'Bangla Sangam MN Bold';fill:#daedf6;fill-opacity:1;stroke:#000000;stroke-width:2.1;stroke-linecap:round;stroke-linejoin:round;stroke-dasharray:none"
             d="m 142.64796,98.795992 q -0.21885,0.135837 -0.38487,0.203756 -0.16603,0.07547 -0.30186,0.105652 -0.1283,0.03773 -0.2264,0.03773 -0.0906,0.0075 -0.15848,0.0075 -0.27167,0 -0.49807,-0.0981 -0.21885,-0.09811 -0.39242,-0.256582 -0.16602,-0.166024 -0.29431,-0.377327 -0.12075,-0.218849 -0.20376,-0.460338 -0.33959,0.354687 -0.64145,0.588629 -0.30187,0.226396 -0.59618,0.362234 -0.29432,0.135837 -0.58863,0.188663 -0.29432,0.05283 -0.61127,0.05283 -0.52071,0 -0.9735,-0.158477 -0.44525,-0.166024 -0.7773,-0.460339 -0.33204,-0.301861 -0.52071,-0.724467 -0.18866,-0.422606 -0.18866,-0.93577 0,-0.445246 0.19621,-0.769747 0.20376,-0.324501 0.52826,-0.56599 0.33204,-0.241489 0.7471,-0.415059 0.42261,-0.17357 0.85276,-0.309408 0.4377,-0.143384 0.85276,-0.271675 0.42261,-0.128291 0.74711,-0.271675 0.33205,-0.143384 0.52825,-0.316955 0.20376,-0.181116 0.20376,-0.430152 0,-0.241489 -0.12829,-0.399966 -0.12074,-0.166024 -0.31695,-0.264129 -0.18867,-0.105651 -0.43016,-0.150931 -0.23394,-0.04528 -0.46034,-0.04528 -0.22639,0 -0.45279,0.06792 -0.22639,0.06037 -0.41506,0.19621 -0.18111,0.135837 -0.3094,0.354687 -0.1283,0.211303 -0.16603,0.505618 h -1.80362 q 0.0453,-0.664095 0.3245,-1.15462 0.28677,-0.498071 0.72447,-0.822572 0.4377,-0.324501 0.98105,-0.482978 0.55089,-0.158477 1.11688,-0.158477 0.61882,0 1.17726,0.135837 0.56599,0.135838 0.99615,0.430153 0.43015,0.294314 0.68673,0.754653 0.25658,0.452792 0.25658,1.094247 v 3.727988 q 0,0.15093 0.0981,0.279221 0.0981,0.120745 0.27922,0.120745 0.0226,0 0.16602,-0.01509 0.14339,-0.02264 0.37733,-0.150931 z"
             id="path51691" /><path
             style="font-weight:bold;font-size:15.4553px;font-family:'Bangla Sangam MN';-inkscape-font-specification:'Bangla Sangam MN Bold';fill:#daedf6;fill-opacity:1;stroke:#000000;stroke-width:2.1;stroke-linecap:round;stroke-linejoin:round;stroke-dasharray:none"
             d="m 143.45544,91.317377 h 1.32064 l 0.29432,0.943317 q 0.34714,-0.54335 0.71692,-0.815026 0.37733,-0.279221 0.82257,-0.279221 0.13584,0 0.4377,0.06037 0.30186,0.05283 0.72447,0.286768 v 1.539493 q -0.27922,-0.105652 -0.48298,-0.166024 -0.19621,-0.06037 -0.33205,-0.08301 -0.12829,-0.03019 -0.20375,-0.03019 -0.0679,-0.0075 -0.0981,-0.0075 -0.33205,0 -0.59618,0.143384 -0.26412,0.135837 -0.44524,0.36978 -0.18112,0.226396 -0.27922,0.528257 -0.0981,0.301862 -0.0981,0.626363 v 4.565652 h -1.78098 z"
             id="path51693" /><path
             style="font-weight:bold;font-size:15.4553px;font-family:'Bangla Sangam MN';-inkscape-font-specification:'Bangla Sangam MN Bold';fill:#daedf6;fill-opacity:1;stroke:#000000;stroke-width:2.1;stroke-linecap:round;stroke-linejoin:round;stroke-dasharray:none"
             d="M 150.36509,88.479881 V 98.999748 H 148.5841 V 88.479881 Z"
             id="path51695" /><path
             style="font-weight:bold;font-size:15.4553px;font-family:'Bangla Sangam MN';-inkscape-font-specification:'Bangla Sangam MN Bold';fill:#daedf6;fill-opacity:1;stroke:#000000;stroke-width:2.1;stroke-linecap:round;stroke-linejoin:round;stroke-dasharray:none"
             d="m 161.72079,96.381101 1.72816,-5.063724 h 1.82626 l -3.18464,9.086023 q -0.15847,0.44525 -0.39996,0.7622 -0.23395,0.3245 -0.50562,0.52826 -0.27168,0.2113 -0.55844,0.30941 -0.28677,0.10565 -0.53581,0.10565 -0.1132,0 -0.25658,-0.0226 -0.14338,-0.0151 -0.30186,-0.0604 -0.15848,-0.0377 -0.3245,-0.0981 -0.15848,-0.0604 -0.30186,-0.14338 v -1.37347 q 0.27922,0.15093 0.48297,0.20376 0.21131,0.0528 0.3396,0.0528 0.18866,0 0.33205,-0.1132 0.14338,-0.10565 0.26412,-0.33959 0.12075,-0.226396 0.23395,-0.581083 0.12074,-0.347141 0.27167,-0.830119 -0.0981,-0.264128 -0.20375,-0.550897 -0.10566,-0.286768 -0.24904,-0.671641 -0.13584,-0.384873 -0.33205,-0.913131 -0.18866,-0.528257 -0.46788,-1.275364 -0.27168,-0.747107 -0.64146,-1.743249 -0.36978,-1.003689 -0.8603,-2.331879 h 1.87908 z"
             id="path51697" /></g><g
           id="g51622"
           style="fill:#daedf6;fill-opacity:1"><path
             style="font-weight:bold;font-size:15.4553px;font-family:'Bangla Sangam MN';-inkscape-font-specification:'Bangla Sangam MN Bold';fill:#daedf6;fill-opacity:1;stroke-width:14.6034;stroke-linecap:round;stroke-linejoin:round"
             d="m 152.9149,95.633994 q 0.0453,0.41506 0.19621,0.792386 0.15093,0.36978 0.38487,0.656549 0.23395,0.279221 0.54336,0.445245 0.3094,0.166024 0.66409,0.166024 0.65655,0 1.0867,-0.354687 0.4377,-0.362234 0.69428,-1.079154 h 1.64515 q -0.15093,0.686734 -0.49053,1.222538 -0.33205,0.535804 -0.79238,0.905584 -0.46034,0.36978 -1.01879,0.56599 -0.55089,0.19621 -1.13952,0.19621 -0.83012,0 -1.49422,-0.332048 -0.66409,-0.332047 -1.13198,-0.890491 -0.46788,-0.558443 -0.72446,-1.298003 -0.24904,-0.747107 -0.24904,-1.569679 0,-0.769747 0.24904,-1.471574 0.25658,-0.709374 0.72446,-1.245178 0.46789,-0.543351 1.13198,-0.860305 0.67164,-0.316954 1.50176,-0.316954 0.79994,0 1.44894,0.286768 0.649,0.286768 1.10934,0.799932 0.46034,0.505618 0.70183,1.199899 0.24903,0.686735 0.24903,1.486667 v 0.694281 z"
             id="path50741" /><path
             style="font-weight:bold;font-size:15.4553px;font-family:'Bangla Sangam MN';-inkscape-font-specification:'Bangla Sangam MN Bold';fill:#daedf6;fill-opacity:1;stroke-width:14.6034;stroke-linecap:round;stroke-linejoin:round"
             d="m 127.5587,88.575999 h 4.16569 c 0.54335,0 1.02381,0.09307 1.44138,0.279222 0.41758,0.186148 0.76724,0.430153 1.04897,0.732014 0.28677,0.29683 0.50311,0.631393 0.649,1.003689 0.15093,0.372295 0.2264,0.747106 0.2264,1.124433 0,0.397451 -0.0755,0.787355 -0.2264,1.169713 -0.14589,0.377327 -0.36223,0.714405 -0.649,1.011235 -0.28677,0.291799 -0.63894,0.528257 -1.05651,0.709374 -0.41757,0.176086 -0.89552,0.264129 -1.43384,0.264129 h -2.38471 v 5.640172 l -1.78098,2.06625 z"
             id="path50753"
             sodipodi:nodetypes="cssccscccscccc" /><path
             style="font-weight:bold;font-size:15.4553px;font-family:'Bangla Sangam MN';-inkscape-font-specification:'Bangla Sangam MN Bold';fill:#daedf6;fill-opacity:1;stroke-width:14.6034;stroke-linecap:round;stroke-linejoin:round"
             d="m 142.64796,98.795992 q -0.21885,0.135837 -0.38487,0.203756 -0.16603,0.07547 -0.30186,0.105652 -0.1283,0.03773 -0.2264,0.03773 -0.0906,0.0075 -0.15848,0.0075 -0.27167,0 -0.49807,-0.0981 -0.21885,-0.09811 -0.39242,-0.256582 -0.16602,-0.166024 -0.29431,-0.377327 -0.12075,-0.218849 -0.20376,-0.460338 -0.33959,0.354687 -0.64145,0.588629 -0.30187,0.226396 -0.59618,0.362234 -0.29432,0.135837 -0.58863,0.188663 -0.29432,0.05283 -0.61127,0.05283 -0.52071,0 -0.9735,-0.158477 -0.44525,-0.166024 -0.7773,-0.460339 -0.33204,-0.301861 -0.52071,-0.724467 -0.18866,-0.422606 -0.18866,-0.93577 0,-0.445246 0.19621,-0.769747 0.20376,-0.324501 0.52826,-0.56599 0.33204,-0.241489 0.7471,-0.415059 0.42261,-0.17357 0.85276,-0.309408 0.4377,-0.143384 0.85276,-0.271675 0.42261,-0.128291 0.74711,-0.271675 0.33205,-0.143384 0.52825,-0.316955 0.20376,-0.181116 0.20376,-0.430152 0,-0.241489 -0.12829,-0.399966 -0.12074,-0.166024 -0.31695,-0.264129 -0.18867,-0.105651 -0.43016,-0.150931 -0.23394,-0.04528 -0.46034,-0.04528 -0.22639,0 -0.45279,0.06792 -0.22639,0.06037 -0.41506,0.19621 -0.18111,0.135837 -0.3094,0.354687 -0.1283,0.211303 -0.16603,0.505618 h -1.80362 q 0.0453,-0.664095 0.3245,-1.15462 0.28677,-0.498071 0.72447,-0.822572 0.4377,-0.324501 0.98105,-0.482978 0.55089,-0.158477 1.11688,-0.158477 0.61882,0 1.17726,0.135837 0.56599,0.135838 0.99615,0.430153 0.43015,0.294314 0.68673,0.754653 0.25658,0.452792 0.25658,1.094247 v 3.727988 q 0,0.15093 0.0981,0.279221 0.0981,0.120745 0.27922,0.120745 0.0226,0 0.16602,-0.01509 0.14339,-0.02264 0.37733,-0.150931 z"
             id="path50749" /><path
             style="font-weight:bold;font-size:15.4553px;font-family:'Bangla Sangam MN';-inkscape-font-specification:'Bangla Sangam MN Bold';fill:#daedf6;fill-opacity:1;stroke-width:14.6034;stroke-linecap:round;stroke-linejoin:round"
             d="m 143.45544,91.317377 h 1.32064 l 0.29432,0.943317 q 0.34714,-0.54335 0.71692,-0.815026 0.37733,-0.279221 0.82257,-0.279221 0.13584,0 0.4377,0.06037 0.30186,0.05283 0.72447,0.286768 v 1.539493 q -0.27922,-0.105652 -0.48298,-0.166024 -0.19621,-0.06037 -0.33205,-0.08301 -0.12829,-0.03019 -0.20375,-0.03019 -0.0679,-0.0075 -0.0981,-0.0075 -0.33205,0 -0.59618,0.143384 -0.26412,0.135837 -0.44524,0.36978 -0.18112,0.226396 -0.27922,0.528257 -0.0981,0.301862 -0.0981,0.626363 v 4.565652 h -1.78098 z"
             id="path50747" /><path
             style="font-weight:bold;font-size:15.4553px;font-family:'Bangla Sangam MN';-inkscape-font-specification:'Bangla Sangam MN Bold';fill:#daedf6;fill-opacity:1;stroke-width:14.6034;stroke-linecap:round;stroke-linejoin:round"
             d="M 150.36509,88.479881 V 98.999748 H 148.5841 V 88.479881 Z"
             id="path50745" /><path
             style="font-weight:bold;font-size:15.4553px;font-family:'Bangla Sangam MN';-inkscape-font-specification:'Bangla Sangam MN Bold';fill:#daedf6;fill-opacity:1;stroke-width:14.6034;stroke-linecap:round;stroke-linejoin:round"
             d="m 161.72079,96.381101 1.72816,-5.063724 h 1.82626 l -3.18464,9.086023 q -0.15847,0.44525 -0.39996,0.7622 -0.23395,0.3245 -0.50562,0.52826 -0.27168,0.2113 -0.55844,0.30941 -0.28677,0.10565 -0.53581,0.10565 -0.1132,0 -0.25658,-0.0226 -0.14338,-0.0151 -0.30186,-0.0604 -0.15848,-0.0377 -0.3245,-0.0981 -0.15848,-0.0604 -0.30186,-0.14338 v -1.37347 q 0.27922,0.15093 0.48297,0.20376 0.21131,0.0528 0.3396,0.0528 0.18866,0 0.33205,-0.1132 0.14338,-0.10565 0.26412,-0.33959 0.12075,-0.226396 0.23395,-0.581083 0.12074,-0.347141 0.27167,-0.830119 -0.0981,-0.264128 -0.20375,-0.550897 -0.10566,-0.286768 -0.24904,-0.671641 -0.13584,-0.384873 -0.33205,-0.913131 -0.18866,-0.528257 -0.46788,-1.275364 -0.27168,-0.747107 -0.64146,-1.743249 -0.36978,-1.003689 -0.8603,-2.331879 h 1.87908 z"
             id="path50735" /></g><g
           id="g51685"
           style="fill:#daedf6;fill-opacity:1"><path
             style="font-weight:bold;font-size:15.4553px;font-family:'Bangla Sangam MN';-inkscape-font-specification:'Bangla Sangam MN Bold';fill:#daedf6;fill-opacity:1;stroke-width:14.6034;stroke-linecap:round;stroke-linejoin:round"
             d="m 129.44335,93.271929 h 2.00738 q 0.5509,0 0.92068,-0.128291 0.37732,-0.135837 0.60372,-0.362233 0.23394,-0.226396 0.33205,-0.528258 0.10565,-0.309407 0.10565,-0.664095 0,-0.34714 -0.12829,-0.641455 -0.12829,-0.301861 -0.37733,-0.513164 -0.24903,-0.21885 -0.61881,-0.339594 -0.36224,-0.120745 -0.83767,-0.120745 h -2.00738 z"
             id="path50755" /><path
             style="font-weight:bold;font-size:15.4553px;font-family:'Bangla Sangam MN';-inkscape-font-specification:'Bangla Sangam MN Bold';fill:#daedf6;fill-opacity:1;stroke-width:14.6034;stroke-linecap:round;stroke-linejoin:round"
             d="m 139.9463,95.31704 q -0.17357,0.105651 -0.45279,0.188663 -0.27922,0.08301 -0.60372,0.173571 -0.3245,0.08301 -0.65655,0.181116 -0.3245,0.09811 -0.58863,0.233943 -0.26413,0.128291 -0.4377,0.309408 -0.16602,0.17357 -0.16602,0.415059 0,0.233943 0.0755,0.399966 0.0755,0.166024 0.19621,0.271676 0.12829,0.105651 0.28677,0.158477 0.15848,0.04528 0.31695,0.04528 0.52071,0 1.05652,-0.347141 0.54335,-0.354687 0.9735,-1.064061 z"
             id="path50751" /><path
             style="font-weight:bold;font-size:15.4553px;font-family:'Bangla Sangam MN';-inkscape-font-specification:'Bangla Sangam MN Bold';fill:#daedf6;fill-opacity:1;stroke-width:14.6034;stroke-linecap:round;stroke-linejoin:round"
             d="m 156.44568,94.231332 q -0.0453,-0.362234 -0.18866,-0.656549 -0.13584,-0.294314 -0.36223,-0.505617 -0.2264,-0.21885 -0.53581,-0.332048 -0.30941,-0.120744 -0.67919,-0.120744 -0.33959,0 -0.6339,0.128291 -0.28677,0.128291 -0.51317,0.34714 -0.21885,0.21885 -0.36978,0.513165 -0.14338,0.294314 -0.19621,0.626362 z"
             id="path50743" /></g></g><g
         id="g59708"
         transform="translate(116.41668)"><path
           style="font-weight:bold;font-size:15.4553px;font-family:'Bangla Sangam MN';-inkscape-font-specification:'Bangla Sangam MN Bold';fill:#000000;stroke-width:34.8094;stroke-linecap:round;stroke-linejoin:round"
           d="m 107.23846,106.04676 c 0.58761,0 1.12734,0.096 1.61902,0.28783 0.49168,0.17989 0.91715,0.4434 1.27692,0.79117 0.35976,0.33578 0.64765,0.7374 0.86352,1.2051 0.22781,0.46769 0.37759,0.98965 0.44958,1.56527 h -8.29252 c 0.084,-0.52766 0.23983,-1.02523 0.46768,-1.49293 0.23984,-0.46769 0.53382,-0.8754 0.8816,-1.22318 0.35977,-0.34777 0.76747,-0.62399 1.22318,-0.82786 0.46768,-0.20386 0.97138,-0.3054 1.51102,-0.3054 z"
           id="path59703" /><path
           style="font-weight:bold;font-size:15.4553px;font-family:'Bangla Sangam MN';-inkscape-font-specification:'Bangla Sangam MN Bold';fill:#000000;stroke-width:34.8094;stroke-linecap:round;stroke-linejoin:round"
           d="m 47.083431,99.748433 h 4.784721 c 0.755505,0 1.421142,0.09596 1.996777,0.287837 0.587618,0.19187 1.079629,0.46147 1.475362,0.80925 0.39575,0.33578 0.695305,0.7435 0.89917,1.22319 0.203866,0.46769 0.305925,0.97746 0.305925,1.5291 0,0.56364 -0.08429,1.09117 -0.252181,1.58285 -0.155907,0.47969 -0.419413,0.89959 -0.791166,1.25935 -0.359773,0.35977 -0.83959,0.64766 -1.439189,0.86352 -0.587617,0.20386 -1.319263,0.30541 -2.194698,0.30541 h -4.784721 z"
           id="path59699" /><path
           style="font-weight:bold;font-size:15.4553px;font-family:'Bangla Sangam MN';-inkscape-font-specification:'Bangla Sangam MN Bold';fill:#000000;stroke-width:34.8094;stroke-linecap:round;stroke-linejoin:round"
           d="m 72.118595,112.48409 5.17e-4,2.30219 c -0.683551,1.12726 -1.457351,1.97316 -2.320788,2.53679 -0.851456,0.55164 -1.690733,0.82734 -2.518193,0.82734 -0.251824,0 -0.503669,-0.036 -0.755509,-0.108 -0.251841,-0.084 -0.479814,-0.20987 -0.68368,-0.37776 -0.191819,-0.16789 -0.347694,-0.38368 -0.467671,-0.6475 -0.119978,-0.26383 -0.179834,-0.58167 -0.179834,-0.95343 0,-0.38376 0.132019,-0.71379 0.395841,-0.98961 0.27582,-0.28781 0.623102,-0.53355 1.042831,-0.73742 0.419728,-0.21585 0.887869,-0.40168 1.403531,-0.55759 0.527661,-0.1559 1.0491,-0.29959 1.564763,-0.4315 0.515662,-0.14391 0.99548,-0.28201 1.439188,-0.41392 0.443709,-0.13192 0.803185,-0.2817 1.079004,-0.44959 z"
           id="path59695" /></g><path
         id="path59076"
         style="font-weight:bold;font-size:15.4553px;font-family:'Bangla Sangam MN';-inkscape-font-specification:'Bangla Sangam MN Bold';fill:#ffffff;fill-opacity:1;stroke-width:34.8094;stroke-linecap:round;stroke-linejoin:round"
         d="m 209.12477,96.186377 v 13.687533 c 1.40455,-0.0465 2.81927,-0.0505 4.24574,-0.004 V 96.186377 Z m -50.11686,0.229443 v 15.39028 c 1.40718,0.73271 2.81716,1.32998 4.24521,1.80247 v -2.19056 h 5.68442 c 1.28316,0 2.42202,-0.20969 3.41736,-0.62942 0.99534,-0.43172 1.83515,-0.99582 2.51871,-1.69137 0.68356,-0.70754 1.19893,-1.51077 1.54668,-2.41019 0.35969,-0.91141 0.54002,-1.84056 0.54002,-2.78795 0,-0.89939 -0.18026,-1.79303 -0.54002,-2.68045 -0.34775,-0.88743 -0.86312,-1.685084 -1.54668,-2.392621 -0.67154,-0.719529 -1.50526,-1.300886 -2.50062,-1.744596 -0.99534,-0.443721 -2.1403,-0.665593 -3.43545,-0.665593 z m 4.49223,3.332613 h 4.78472 c 0.75551,0 1.42115,0.09596 1.99678,0.287837 0.58762,0.19187 1.07963,0.46147 1.47536,0.80925 0.39575,0.33578 0.69531,0.7435 0.89917,1.22319 0.20387,0.46768 0.30593,0.97746 0.30593,1.5291 0,0.56364 -0.0843,1.09117 -0.25218,1.58285 -0.15591,0.47969 -0.41942,0.8996 -0.79117,1.25935 -0.35977,0.35977 -0.83959,0.64766 -1.43919,0.86352 -0.58761,0.20386 -1.31926,0.30541 -2.1947,0.30541 h -4.78472 z m 21.85139,2.841687 c -0.89941,0 -1.78695,0.12592 -2.66237,0.37776 -0.86344,0.25182 -1.64281,0.63568 -2.33836,1.15135 -0.69555,0.51566 -1.27132,1.16911 -1.72703,1.9606 -0.44368,0.77949 -0.70109,1.69697 -0.77308,2.75229 h 4.29897 c 0.06,-0.4677 0.19196,-0.86932 0.39584,-1.2051 0.20386,-0.34777 0.44962,-0.62956 0.73742,-0.84542 0.29982,-0.21586 0.62985,-0.37174 0.9896,-0.46768 0.35978,-0.10792 0.71926,-0.16174 1.07901,-0.16174 0.35977,0 0.72534,0.0361 1.09709,0.108 0.38375,0.072 0.72597,0.19178 1.02578,0.35967 0.3118,0.1559 0.56364,0.36558 0.75551,0.62942 0.20386,0.25183 0.30541,0.56967 0.30541,0.95343 0,0.39574 -0.16145,0.73745 -0.48524,1.02526 -0.31179,0.27582 -0.7317,0.52765 -1.25936,0.75551 -0.51566,0.22785 -1.1092,0.44364 -1.78077,0.6475 -0.65957,0.20387 -1.3374,0.41966 -2.03295,0.64751 -0.68355,0.21587 -1.36087,0.46212 -2.03244,0.73794 -0.65957,0.27582 -1.25312,0.60534 -1.78077,0.98909 -0.51566,0.38374 -0.93556,0.83361 -1.25935,1.34927 -0.006,0.009 -0.0104,0.0194 -0.016,0.0289 3.41526,-0.44719 6.79017,-1.04083 10.15597,-1.65572 0.18547,-0.0766 0.34951,-0.15783 0.49093,-0.24391 v 0.15503 c 1.41523,-0.25917 2.82984,-0.51643 4.24522,-0.76946 v -3.5233 c 0,-1.01933 -0.2036,-1.88858 -0.61133,-2.60811 -0.40773,-0.73153 -0.95356,-1.33117 -1.63711,-1.79886 -0.68357,-0.4677 -1.47512,-0.8094 -2.37454,-1.02526 -0.88741,-0.21585 -1.82266,-0.32401 -2.80603,-0.32401 z m 19.06758,5.2e-4 c -0.70753,0 -1.36099,0.22188 -1.9606,0.66559 -0.58762,0.43172 -1.1573,1.07908 -1.70894,1.94252 l -0.70177,-2.24844 h -3.14761 v 8.21448 c 1.41067,-0.22663 2.82485,-0.43698 4.24522,-0.61908 v -0.1664 c 0,-0.51567 0.0777,-1.01325 0.23358,-1.49293 0.15589,-0.4797 0.37777,-0.8996 0.66559,-1.25936 0.28782,-0.37176 0.64172,-0.66522 1.06143,-0.88108 0.41973,-0.22785 0.89344,-0.3421 1.4211,-0.3421 0.048,0 0.1262,0.006 0.2341,0.0181 0.11991,0 0.28138,0.0238 0.48524,0.0718 0.21586,0.036 0.47989,0.10199 0.79169,0.19792 0.32379,0.0959 0.70764,0.22795 1.15135,0.39584 v -3.66954 c -0.67157,-0.37176 -1.24734,-0.59973 -1.72703,-0.68368 -0.47969,-0.0959 -0.82749,-0.14366 -1.04335,-0.14366 z m 19.27429,0 c -1.31914,0 -2.51232,0.25183 -3.57963,0.75551 -1.05531,0.50367 -1.95502,1.18708 -2.69854,2.05052 -0.74351,0.85144 -1.31879,1.84052 -1.72652,2.96777 -0.18515,0.52179 -0.32518,1.05603 -0.42374,1.60146 0.27175,0.0177 0.54275,0.0331 0.81545,0.0548 6.03773,0.62795 11.11358,1.51648 15.97732,2.17248 v -0.60875 c 0,-1.27117 -0.19751,-2.45216 -0.59324,-3.54345 -0.38375,-1.10329 -0.94177,-2.05682 -1.67328,-2.86029 -0.73153,-0.81547 -1.61296,-1.45116 -2.64429,-1.90686 -1.03132,-0.45571 -2.18236,-0.68316 -3.45353,-0.68316 z m 8.05635,0.35967 c 0.77949,2.11062 1.46342,3.96335 2.05104,5.55831 0.57737,1.55538 1.07536,2.90965 1.50223,4.08296 1.46982,0.1603 2.9365,0.29211 4.41782,0.37207 l -3.49177,-10.01334 z m 12.80801,0 -3.43855,10.07483 c 1.3956,0.0456 2.8108,0.0471 4.26382,-0.01 l 3.52795,-10.06501 z m -20.9026,3.09645 c 0.5876,0 1.12734,0.096 1.61902,0.28783 0.49168,0.17989 0.91715,0.4434 1.27692,0.79117 0.35976,0.33578 0.64765,0.7374 0.86352,1.2051 0.22781,0.46768 0.37759,0.98966 0.44958,1.56527 h -8.29252 c 0.084,-0.52766 0.23983,-1.02523 0.46768,-1.49293 0.23984,-0.46769 0.53382,-0.8754 0.8816,-1.22318 0.35977,-0.34777 0.76747,-0.62399 1.22318,-0.82786 0.46768,-0.20386 0.97138,-0.3054 1.51102,-0.3054 z" /></g></g></svg>
